<?xml version="1.0" encoding="UTF-8"?>
<level>
  <owner>stolbitsa</owner>
  <repo>bar-song</repo>
  <version>v1.0.0</version>
  <next number="1" owner="stolbitsa" repo="inca-roads-1"/>
  <readme>
    <ru>2efca96b1ae86bb0acdf8ea829adbae6e7c78085610e49f2f6d9cc6f296e3b4d</ru>
    <en>4e93e30a5a03e584a6a3250958f28682508cffad1f441c15a5b3a1965b895e55</en>
  </readme>
  <license>b1b99f5538d1fd3702219bff50c665196dfa42f6ee755c37fe41a6178d6bc6e5</license>
  <exercise number="1">
    <scale>major</scale>
    <bpm>162</bpm>
    <lowestNote>5</lowestNote>
    <tonalities>10</tonalities>
    <video name="16-bar-song-1.mp4" size="1731754" type="video/mp4" volume="0.568">e5668ff2b20d7d8de214f8f68c32cfd7dad72ff36c2835c2f846a7b0823ff889</video>
    <notes>
      <note number="1" values="38" ticks="89" durationTicks="25" ppq="96" velocity="0.832"/>
      <note number="2" values="38" ticks="138" durationTicks="23" ppq="96" velocity="0.884"/>
      <note number="3" values="38" ticks="186" durationTicks="46" ppq="96" velocity="0.717"/>
      <note number="4" values="28" ticks="232" durationTicks="33" ppq="96" velocity="0.759"/>
      <note number="5" values="28" ticks="282" durationTicks="39" ppq="96" velocity="0.719"/>
      <note number="6" values="18" ticks="328" durationTicks="34" ppq="96" velocity="0.819"/>
      <note number="7" values="18" ticks="376" durationTicks="28" ppq="96" velocity="0.844"/>
      <note number="8" values="18" ticks="424" durationTicks="30" ppq="96" velocity="0.852"/>
      <note number="9" values="18" ticks="473" durationTicks="46" ppq="96" velocity="0.844"/>
      <note number="10" values="6" ticks="521" durationTicks="47" ppq="96" velocity="0.844"/>
      <note number="11" values="18" ticks="568" durationTicks="95" ppq="96" velocity="0.844"/>
      <note number="12" values="5" ticks="665" durationTicks="95" ppq="96" velocity="0.844"/>
    </notes>
  </exercise>
  <exercise number="2">
    <scale>major</scale>
    <bpm>162</bpm>
    <lowestNote>5</lowestNote>
    <tonalities>10</tonalities>
    <video name="16-bar-song-1.mp4" size="1731754" type="video/mp4" volume="0.436">e5668ff2b20d7d8de214f8f68c32cfd7dad72ff36c2835c2f846a7b0823ff889</video>
    <notes>
      <note number="1" values="38" ticks="89" durationTicks="25" ppq="96" velocity="0.832"/>
      <note number="2" values="38" ticks="138" durationTicks="23" ppq="96" velocity="0.884"/>
      <note number="3" values="38" ticks="186" durationTicks="46" ppq="96" velocity="0.717"/>
      <note number="4" values="28" ticks="232" durationTicks="33" ppq="96" velocity="0.759"/>
      <note number="5" values="28" ticks="282" durationTicks="39" ppq="96" velocity="0.719"/>
      <note number="6" values="18" ticks="328" durationTicks="34" ppq="96" velocity="0.819"/>
      <note number="7" values="18" ticks="376" durationTicks="28" ppq="96" velocity="0.844"/>
      <note number="8" values="18" ticks="424" durationTicks="30" ppq="96" velocity="0.852"/>
      <note number="9" values="18" ticks="473" durationTicks="46" ppq="96" velocity="0.844"/>
      <note number="10" values="6" ticks="521" durationTicks="47" ppq="96" velocity="0.844"/>
      <note number="11" values="18" ticks="568" durationTicks="95" ppq="96" velocity="0.844"/>
      <note number="12" values="5" ticks="665" durationTicks="95" ppq="96" velocity="0.844"/>
    </notes>
  </exercise>
  <exercise number="3">
    <scale>major</scale>
    <bpm>162</bpm>
    <lowestNote>5</lowestNote>
    <tonalities>10</tonalities>
    <video name="16-bar-song-1.mp4" size="1731754" type="video/mp4" volume="0.436">e5668ff2b20d7d8de214f8f68c32cfd7dad72ff36c2835c2f846a7b0823ff889</video>
    <notes>
      <note number="1" values="38" ticks="89" durationTicks="25" ppq="96" velocity="0.832"/>
      <note number="2" values="38" ticks="138" durationTicks="23" ppq="96" velocity="0.884"/>
      <note number="3" values="38" ticks="186" durationTicks="46" ppq="96" velocity="0.717"/>
      <note number="4" values="28" ticks="232" durationTicks="33" ppq="96" velocity="0.759"/>
      <note number="5" values="28" ticks="282" durationTicks="39" ppq="96" velocity="0.719"/>
      <note number="6" values="18" ticks="328" durationTicks="34" ppq="96" velocity="0.819"/>
      <note number="7" values="18" ticks="376" durationTicks="28" ppq="96" velocity="0.844"/>
      <note number="8" values="18" ticks="424" durationTicks="30" ppq="96" velocity="0.852"/>
      <note number="9" values="18" ticks="473" durationTicks="46" ppq="96" velocity="0.844"/>
      <note number="10" values="6" ticks="521" durationTicks="47" ppq="96" velocity="0.844"/>
      <note number="11" values="18" ticks="568" durationTicks="95" ppq="96" velocity="0.844"/>
      <note number="12" values="5" ticks="665" durationTicks="95" ppq="96" velocity="0.844"/>
    </notes>
  </exercise>
  <exercise number="4">
    <scale>major</scale>
    <bpm>162</bpm>
    <lowestNote>5</lowestNote>
    <tonalities>10</tonalities>
    <video name="16-bar-song-1.mp4" size="1731754" type="video/mp4" volume="0.436">e5668ff2b20d7d8de214f8f68c32cfd7dad72ff36c2835c2f846a7b0823ff889</video>
    <notes>
      <note number="1" values="38" ticks="89" durationTicks="25" ppq="96" velocity="0.832"/>
      <note number="2" values="38" ticks="138" durationTicks="23" ppq="96" velocity="0.884"/>
      <note number="3" values="38" ticks="186" durationTicks="46" ppq="96" velocity="0.717"/>
      <note number="4" values="28" ticks="232" durationTicks="33" ppq="96" velocity="0.759"/>
      <note number="5" values="28" ticks="282" durationTicks="39" ppq="96" velocity="0.719"/>
      <note number="6" values="18" ticks="328" durationTicks="34" ppq="96" velocity="0.819"/>
      <note number="7" values="18" ticks="376" durationTicks="28" ppq="96" velocity="0.844"/>
      <note number="8" values="18" ticks="424" durationTicks="30" ppq="96" velocity="0.852"/>
      <note number="9" values="18" ticks="473" durationTicks="46" ppq="96" velocity="0.844"/>
      <note number="10" values="6" ticks="521" durationTicks="47" ppq="96" velocity="0.844"/>
      <note number="11" values="18" ticks="568" durationTicks="95" ppq="96" velocity="0.844"/>
      <note number="12" values="5" ticks="665" durationTicks="95" ppq="96" velocity="0.844"/>
    </notes>
  </exercise>
  <exercise number="5">
    <scale>major</scale>
    <bpm>162</bpm>
    <lowestNote>5</lowestNote>
    <tonalities>10</tonalities>
    <video name="16-bar-song-1.mp4" size="1731754" type="video/mp4" volume="0.436">e5668ff2b20d7d8de214f8f68c32cfd7dad72ff36c2835c2f846a7b0823ff889</video>
    <notes>
      <note number="1" values="38" ticks="89" durationTicks="25" ppq="96" velocity="0.832"/>
      <note number="2" values="38" ticks="138" durationTicks="23" ppq="96" velocity="0.884"/>
      <note number="3" values="38" ticks="186" durationTicks="46" ppq="96" velocity="0.717"/>
      <note number="4" values="28" ticks="232" durationTicks="33" ppq="96" velocity="0.759"/>
      <note number="5" values="28" ticks="282" durationTicks="39" ppq="96" velocity="0.719"/>
      <note number="6" values="18" ticks="328" durationTicks="34" ppq="96" velocity="0.819"/>
      <note number="7" values="18" ticks="376" durationTicks="28" ppq="96" velocity="0.844"/>
      <note number="8" values="18" ticks="424" durationTicks="30" ppq="96" velocity="0.852"/>
      <note number="9" values="18" ticks="473" durationTicks="46" ppq="96" velocity="0.844"/>
      <note number="10" values="6" ticks="521" durationTicks="47" ppq="96" velocity="0.844"/>
      <note number="11" values="18" ticks="568" durationTicks="95" ppq="96" velocity="0.844"/>
      <note number="12" values="5" ticks="665" durationTicks="95" ppq="96" velocity="0.844"/>
    </notes>
  </exercise>
  <exercise number="6">
    <scale>major</scale>
    <bpm>162</bpm>
    <lowestNote>5</lowestNote>
    <tonalities>10</tonalities>
    <video name="16-bar-song-1.mp4" size="1731754" type="video/mp4" volume="0.436">e5668ff2b20d7d8de214f8f68c32cfd7dad72ff36c2835c2f846a7b0823ff889</video>
    <notes>
      <note number="1" values="38" ticks="89" durationTicks="25" ppq="96" velocity="0.832"/>
      <note number="2" values="38" ticks="138" durationTicks="23" ppq="96" velocity="0.884"/>
      <note number="3" values="38" ticks="186" durationTicks="46" ppq="96" velocity="0.717"/>
      <note number="4" values="28" ticks="232" durationTicks="33" ppq="96" velocity="0.759"/>
      <note number="5" values="28" ticks="282" durationTicks="39" ppq="96" velocity="0.719"/>
      <note number="6" values="18" ticks="328" durationTicks="34" ppq="96" velocity="0.819"/>
      <note number="7" values="18" ticks="376" durationTicks="28" ppq="96" velocity="0.844"/>
      <note number="8" values="18" ticks="424" durationTicks="30" ppq="96" velocity="0.852"/>
      <note number="9" values="18" ticks="473" durationTicks="46" ppq="96" velocity="0.844"/>
      <note number="10" values="6" ticks="521" durationTicks="47" ppq="96" velocity="0.844"/>
      <note number="11" values="18" ticks="568" durationTicks="95" ppq="96" velocity="0.844"/>
      <note number="12" values="5" ticks="665" durationTicks="95" ppq="96" velocity="0.844"/>
    </notes>
  </exercise>
</level>
